<svg width="12" height="12" viewBox="0 0 12 12" fill="none" xmlns="http://www.w3.org/2000/svg">
<g clip-path="url(#clip0_113_1557)">
<path d="M7 1C7.39782 1 7.77936 1.15804 8.06066 1.43934C8.34196 1.72064 8.5 2.10218 8.5 2.5V3H9.5C9.89782 3 10.2794 3.15804 10.5607 3.43934C10.842 3.72064 11 4.10218 11 4.5V9C11 9.39782 10.842 9.77936 10.5607 10.0607C10.2794 10.342 9.89782 10.5 9.5 10.5H2.5C2.10218 10.5 1.72064 10.342 1.43934 10.0607C1.15804 9.77936 1 9.39782 1 9V4.5C1 4.10218 1.15804 3.72064 1.43934 3.43934C1.72064 3.15804 2.10218 3 2.5 3H3.5V2.5C3.5 2.10218 3.65804 1.72064 3.93934 1.43934C4.22064 1.15804 4.60218 1 5 1H7ZM7 2H5C4.86739 2 4.74021 2.05268 4.64645 2.14645C4.55268 2.24021 4.5 2.36739 4.5 2.5V3H7.5V2.5C7.5 2.36739 7.44732 2.24021 7.35355 2.14645C7.25979 2.05268 7.13261 2 7 2Z" fill="black"/>
</g>
<defs>
<clipPath id="clip0_113_1557">
<rect width="12" height="12" fill="white"/>
</clipPath>
</defs>
</svg>
