<svg width="12" height="12" viewBox="0 0 12 12" fill="none" xmlns="http://www.w3.org/2000/svg">
<g clip-path="url(#clip0_113_1722)">
<path d="M6 1C6.49445 1 6.9778 1.14662 7.38893 1.42133C7.80005 1.69603 8.12048 2.08648 8.3097 2.54329C8.49892 3.00011 8.54843 3.50277 8.45196 3.98773C8.3555 4.47268 8.1174 4.91814 7.76777 5.26777C7.41814 5.6174 6.97268 5.8555 6.48773 5.95196C6.00277 6.04843 5.50011 5.99892 5.04329 5.8097C4.58648 5.62048 4.19603 5.30005 3.92133 4.88893C3.64662 4.4778 3.5 3.99445 3.5 3.5L3.5025 3.3915C3.53046 2.74788 3.8058 2.13989 4.27111 1.69433C4.73642 1.24877 5.35577 1.00004 6 1Z" fill="black"/>
<path d="M7 7C7.66304 7 8.29893 7.26339 8.76777 7.73223C9.23661 8.20107 9.5 8.83696 9.5 9.5V10C9.5 10.2652 9.39464 10.5196 9.20711 10.7071C9.01957 10.8946 8.76522 11 8.5 11H3.5C3.23478 11 2.98043 10.8946 2.79289 10.7071C2.60536 10.5196 2.5 10.2652 2.5 10V9.5C2.5 8.83696 2.76339 8.20107 3.23223 7.73223C3.70107 7.26339 4.33696 7 5 7H7Z" fill="black"/>
</g>
<defs>
<clipPath id="clip0_113_1722">
<rect width="12" height="12" fill="white"/>
</clipPath>
</defs>
</svg>
