<svg width="211" height="58" viewBox="0 0 211 58" fill="none" xmlns="http://www.w3.org/2000/svg">
<path d="M45.5747 9.83325C45.6865 9.83325 45.7983 9.83325 45.9135 9.83325C45.9238 9.9396 45.9341 10.0459 45.9446 10.1555C45.9588 10.2932 45.973 10.4309 45.9877 10.5728C46.0014 10.7101 46.0152 10.8474 46.0294 10.9889C46.0473 11.331 46.0473 11.331 46.2524 11.4999C46.2648 12.0829 46.2517 12.6643 46.2418 13.2473C46.2317 13.8063 46.2317 13.8063 46.3444 14.233C46.4602 14.8816 46.378 15.4943 46.3053 16.1458C46.2822 16.3561 46.2822 16.3561 46.2586 16.5707C46.1018 17.8697 45.7848 19.0792 45.4053 20.3333C45.3568 20.5264 45.3083 20.7195 45.2583 20.9185C44.8573 22.4772 44.1831 23.7841 43.3722 25.1666C43.2604 25.1666 43.1486 25.1666 43.0333 25.1666C43.0275 25.3022 43.0216 25.4377 43.0155 25.5774C42.8025 26.4054 42.3323 26.9358 41.7944 27.5937C41.6958 27.7173 41.5972 27.841 41.4956 27.9683C41.2195 28.3138 40.9407 28.6569 40.6614 28.9999C40.5383 29.1555 40.4151 29.311 40.2882 29.4713C37.1891 33.1562 31.9329 35.5784 27.2128 36.2675C26.9231 36.3104 26.6342 36.3605 26.3472 36.4185C23.6975 36.9253 20.7171 36.7344 18.1282 35.9999C18.0723 35.9449 18.0164 35.8899 17.9588 35.8333C17.7421 35.7886 17.5255 35.7439 17.3023 35.6978C16.0005 35.423 14.7615 34.9657 13.5843 34.3554C13.2919 34.2059 12.9953 34.0643 12.6974 33.9257C12.5153 33.8402 12.3331 33.7547 12.1455 33.6666C11.9749 33.5875 11.8043 33.5085 11.6286 33.427C11.1699 33.1596 10.972 32.9248 10.6736 32.4999C10.5408 32.4484 10.4081 32.3968 10.2712 32.3437C9.69214 32.1131 9.38355 31.7971 8.9794 31.3333C8.84174 30.9478 8.84174 30.9478 8.80997 30.6666C8.71563 30.7113 8.62128 30.756 8.52407 30.802C8.13228 30.8333 8.13228 30.8333 7.68755 30.5208C7.18411 29.8691 7.06463 29.2972 6.94633 28.4999C6.89042 28.6649 6.83451 28.8299 6.7769 28.9999C6.46982 28.9166 6.46982 28.9166 6.09921 28.6666C5.88214 28.2367 5.73557 27.7909 5.59094 27.3333C5.53503 27.1683 5.47913 27.0033 5.42152 26.8333C5.25379 26.7783 5.08606 26.7233 4.91325 26.6666C4.72729 26.3209 4.72729 26.3209 4.56382 25.8853C4.5066 25.7347 4.44938 25.5841 4.39043 25.429C4.14022 24.7358 3.89559 24.0507 3.72729 23.3333C3.83911 23.3333 3.95093 23.3333 4.06614 23.3333C4.06614 23.4433 4.06614 23.5533 4.06614 23.6666C4.34569 23.7216 4.62523 23.7766 4.91325 23.8333C4.96916 23.9983 5.02507 24.1633 5.08268 24.3333C5.18052 24.2954 5.27836 24.2576 5.37917 24.2187C5.76037 24.1666 5.76037 24.1666 6.14157 24.3853C6.23941 24.4781 6.33725 24.571 6.43806 24.6666C6.43806 24.7766 6.43806 24.8866 6.43806 24.9999C6.15851 24.9449 5.87896 24.8899 5.59094 24.8333C5.97152 25.3948 5.99275 25.3754 6.60748 25.4999C6.76997 25.5927 6.76997 25.5927 6.93574 25.6874C7.28783 25.8757 7.28783 25.8757 7.68755 25.7291C8.13228 25.6666 8.13228 25.6666 8.6935 25.9895C8.84375 26.1029 8.99401 26.2164 9.14882 26.3333C9.09291 26.4983 9.037 26.6633 8.9794 26.8333C7.25129 26.5999 7.25129 26.5999 6.43806 26.3333C6.87755 26.8119 7.15021 27.0479 7.79344 27.1666C7.96641 27.2594 7.96641 27.2594 8.14287 27.3541C8.49556 27.5547 8.49556 27.5547 8.9794 27.3333C9.35663 27.5181 9.35663 27.5181 9.76298 27.7916C9.89795 27.8801 10.0329 27.9686 10.172 28.0598C10.5042 28.3333 10.5042 28.3333 10.6736 28.8333C10.4919 28.8058 10.3102 28.7783 10.123 28.7499C9.48253 28.6519 9.48253 28.6519 8.80997 28.6666C8.75406 28.7216 8.69816 28.7766 8.64055 28.8333C9.04312 29.1014 9.04312 29.1014 9.48766 29.3333C9.59948 29.2783 9.7113 29.2233 9.82651 29.1666C10.2458 29.3523 10.6192 29.5968 11.0125 29.8333C11.1802 29.5858 11.1802 29.5858 11.3513 29.3333C12.3983 29.5286 12.9506 29.7779 13.7232 30.4999C13.6394 30.7474 13.6394 30.7474 13.5538 30.9999C12.966 30.9235 12.4231 30.8514 11.8596 30.6666C11.8037 30.7766 11.7478 30.8866 11.6902 30.9999C11.2047 30.848 10.7437 30.703 10.2924 30.4687C10.1946 30.424 10.0967 30.3793 9.99593 30.3333C9.8282 30.4158 9.8282 30.4158 9.65709 30.4999C10.0479 30.7069 10.4205 30.8614 10.843 30.9999C11.3513 31.1666 11.3513 31.1666 11.7007 31.3645C12.0348 31.5396 12.0348 31.5396 12.4314 31.4062C13.0466 31.3053 13.3662 31.5322 13.8927 31.8333C13.9486 31.6133 14.0045 31.3933 14.0621 31.1666C14.6212 31.2216 15.1803 31.2766 15.7563 31.3333C15.7563 31.0583 15.7563 30.7833 15.7563 30.4999C16.3465 30.2096 16.9851 30.2432 17.6107 30.4335C18.085 30.6268 18.4411 30.8077 18.8059 31.1666C18.75 31.4416 18.6941 31.7166 18.6365 31.9999C18.0215 31.9999 17.4065 31.9999 16.7728 31.9999C16.8287 32.1099 16.8847 32.2199 16.9423 32.3333C16.8864 32.4983 16.8304 32.6633 16.7728 32.8333C16.2137 32.7783 15.6546 32.7233 15.0786 32.6666C15.0227 32.7766 14.9668 32.8866 14.9092 32.9999C14.083 33.058 13.5927 32.9027 12.8761 32.4999C12.8202 32.6099 12.7643 32.7199 12.7067 32.8333C12.8535 32.8539 13.0002 32.8745 13.1514 32.8958C13.7232 32.9999 13.7232 32.9999 14.2421 33.1874C14.7223 33.3701 14.7223 33.3701 15.1527 33.2499C15.7565 33.134 16.1981 33.3115 16.7728 33.4999C16.8847 33.2799 16.9965 33.0599 17.1117 32.8333C17.7267 32.8333 18.3417 32.8333 18.9753 32.8333C18.9753 32.5583 18.9753 32.2833 18.9753 31.9999C19.4942 31.7026 19.8599 31.6285 20.4578 31.6458C20.5932 31.6488 20.7286 31.6518 20.8681 31.6549C20.9703 31.6587 21.0725 31.6626 21.1778 31.6666C21.0937 31.591 21.0097 31.5153 20.923 31.4374C20.6696 31.1666 20.6696 31.1666 20.6801 30.8333C20.8988 30.3745 21.0557 30.238 21.5167 29.9999C22.0233 29.9106 22.528 29.8646 23.0415 29.8333C22.9227 29.7164 22.8039 29.5995 22.6815 29.4791C22.3638 28.9999 22.3638 28.9999 22.4379 28.4791C22.7545 27.9061 22.9336 27.7371 23.5497 27.4999C24.2259 27.403 24.7543 27.4419 25.3922 27.6874C25.8465 28.0818 25.9491 28.4284 26.0911 28.9999C26.1811 28.9417 26.271 28.8835 26.3637 28.8235C26.4834 28.7476 26.6031 28.6718 26.7264 28.5937C26.8444 28.5183 26.9623 28.4428 27.0838 28.3652C27.4345 28.1731 27.7323 28.0755 28.1242 27.9999C28.0438 27.9312 27.9634 27.8624 27.8806 27.7916C27.5746 27.4545 27.4867 27.2822 27.4465 26.8333C27.6361 26.0871 28.0021 25.7673 28.6324 25.3333C29.2341 25.0373 29.9044 25.0906 30.5384 25.2812C30.9319 25.5715 31.1162 25.909 31.3432 26.3333C31.41 26.257 31.4768 26.1807 31.5457 26.1021C32.1045 25.6107 32.8205 25.4643 33.5457 25.3333C34.0539 25.4166 34.0539 25.4166 34.3928 25.6666C34.6152 26.1041 34.6152 26.1041 34.7316 26.4999C34.8435 26.4999 34.9553 26.4999 35.0705 26.4999C35.1264 26.3349 35.1823 26.1699 35.2399 25.9999C35.7943 25.5454 36.1639 25.3471 36.8812 25.2395C37.4424 25.3333 37.4424 25.3333 37.7707 25.7499C37.8301 25.8874 37.8895 26.0249 37.9507 26.1666C38.0835 26.005 38.2162 25.8435 38.353 25.677C38.6136 25.36 38.7626 25.1839 39.1366 24.9999C38.9689 24.4224 38.9689 24.4224 38.7978 23.8333C38.6685 23.9914 38.5392 24.1495 38.406 24.3124C37.9768 24.8373 37.6409 25.1422 36.9341 25.2291C36.4259 25.1666 36.4259 25.1666 36.0976 24.9062C35.8382 24.3208 35.9339 23.9466 36.087 23.3333C36.4044 22.6464 36.7388 22.3057 37.4424 21.9999C38.3201 21.8963 38.3201 21.8963 38.766 22.2291C38.9672 22.4999 38.9672 22.4999 39.1366 22.8333C39.2275 22.6751 39.3183 22.517 39.4119 22.3541C39.8616 21.772 40.1207 21.6587 40.8309 21.4999C41.0545 21.7199 41.2781 21.9399 41.5085 22.1666C41.5599 22.0843 41.6112 22.002 41.6641 21.9172C42.2475 21.0395 42.2475 21.0395 42.811 20.8333C43.2028 20.8333 43.2028 20.8333 43.5416 20.9999C43.5988 20.9037 43.6561 20.8074 43.715 20.7083C43.7906 20.5845 43.8661 20.4608 43.944 20.3333C44.056 20.1476 44.056 20.1476 44.1703 19.9583C44.2784 19.8139 44.2784 19.8139 44.3887 19.6666C44.5005 19.6666 44.6124 19.6666 44.7276 19.6666C44.7276 19.5566 44.7276 19.4466 44.7276 19.3333C44.5039 19.2783 44.2803 19.2233 44.0499 19.1666C43.9451 19.3247 43.8402 19.4828 43.7322 19.6458C43.3722 20.1666 43.3722 20.1666 43.0333 20.4999C42.6733 20.4374 42.6733 20.4374 42.3557 20.3333C42.0886 19.4794 42.2614 18.921 42.6396 18.1431C42.8639 17.8333 42.8639 17.8333 43.4145 17.6562C43.5683 17.6596 43.722 17.663 43.8805 17.6666C43.9364 17.8316 43.9923 17.9966 44.0499 18.1666C44.0929 18.0723 44.1359 17.978 44.1803 17.8808C44.2677 17.6974 44.2677 17.6974 44.357 17.5103C44.414 17.3885 44.471 17.2667 44.5297 17.1412C44.7276 16.8333 44.7276 16.8333 45.2358 16.6666C45.4475 16.2409 45.4475 16.2409 45.6065 15.7395C45.6648 15.5708 45.7231 15.4022 45.7832 15.2284C45.8262 15.098 45.8692 14.9676 45.9135 14.8333C45.7458 14.8333 45.5781 14.8333 45.4053 14.8333C45.3494 15.1633 45.2934 15.4933 45.2358 15.8333C45.0122 15.8883 44.7886 15.9433 44.5582 15.9999C44.3094 15.0877 44.4835 14.6467 44.897 13.8333C45.0647 13.8333 45.2325 13.8333 45.4053 13.8333C45.573 13.2283 45.7407 12.6233 45.9135 11.9999C45.8017 11.9999 45.6899 11.9999 45.5747 11.9999C45.4629 12.2749 45.3511 12.5499 45.2358 12.8333C45.0681 12.8333 44.9004 12.8333 44.7276 12.8333C44.5158 11.7291 44.5158 11.7291 44.897 11.1666C45.0088 11.1666 45.1206 11.1666 45.2358 11.1666C45.485 10.5148 45.485 10.5148 45.5747 9.83325ZM45.2358 17.6666C45.1799 18.0516 45.124 18.4366 45.0664 18.8333C45.3423 18.5316 45.3423 18.5316 45.5747 18.1666C45.5188 18.0016 45.4629 17.8366 45.4053 17.6666C45.3494 17.6666 45.2934 17.6666 45.2358 17.6666ZM43.2028 22.1666C43.1329 22.3453 43.063 22.5241 42.991 22.7083C42.7559 23.2537 42.4776 23.6091 42.0168 23.9999C42.1845 23.9999 42.3523 23.9999 42.5251 23.9999C42.581 24.1099 42.6369 24.2199 42.6945 24.3333C42.974 23.7833 43.2536 23.2333 43.5416 22.6666C43.4298 22.5016 43.318 22.3366 43.2028 22.1666ZM41.1697 23.3333C41.0684 23.4879 40.967 23.6426 40.8626 23.802C40.5847 24.2003 40.3443 24.514 39.9837 24.8333C40.2074 24.9983 40.431 25.1633 40.6614 25.3333C40.7628 25.2061 40.8641 25.0789 40.9685 24.9478C41.2493 24.6085 41.526 24.3003 41.8474 23.9999C41.6238 23.7799 41.4001 23.5599 41.1697 23.3333ZM4.91325 24.4999C4.96916 24.6099 5.02507 24.7199 5.08268 24.8333C5.19449 24.7233 5.30631 24.6133 5.42152 24.4999C5.25379 24.4999 5.08606 24.4999 4.91325 24.4999ZM4.91325 25.6666C5.08268 25.9999 5.08268 25.9999 5.08268 25.9999L4.91325 25.6666ZM31.0043 26.6666C31.1738 26.9999 31.1738 26.9999 31.1738 26.9999L31.0043 26.6666ZM39.3802 27.3333C39.2716 27.4261 39.1631 27.5189 39.0513 27.6145C38.9676 27.6867 38.884 27.7589 38.7978 27.8333C38.9655 27.9983 39.1332 28.1633 39.306 28.3333C39.306 28.2233 39.306 28.1133 39.306 27.9999C39.4738 27.9449 39.6415 27.8899 39.8143 27.8333C39.8143 27.7233 39.8143 27.6133 39.8143 27.4999C39.982 27.4449 40.1498 27.3899 40.3226 27.3333C40.2667 27.1683 40.2108 27.0033 40.1532 26.8333C39.8349 26.8333 39.6084 27.1373 39.3802 27.3333ZM30.8349 27.1666C30.7196 27.2697 30.6043 27.3728 30.4855 27.4791C29.9101 27.8886 29.4863 28.0082 28.8018 28.1666C28.9067 28.2628 29.0115 28.3591 29.1195 28.4583C29.4479 28.8003 29.632 29.0722 29.8184 29.4999C29.8876 29.4232 29.9568 29.3465 30.0282 29.2675C30.3562 28.9734 30.6189 28.86 31.0361 28.7187C31.2179 28.6558 31.2179 28.6558 31.4034 28.5917C31.4954 28.5614 31.5873 28.5311 31.682 28.4999C31.4088 28.0479 31.1316 27.6043 30.8349 27.1666ZM34.3928 27.1666C34.5622 27.4999 34.5622 27.4999 34.5622 27.4999L34.3928 27.1666ZM37.4424 27.1666C37.2155 27.4436 36.9898 27.7215 36.7647 27.9999C36.5419 28.2252 36.317 28.4484 36.087 28.6666C36.4225 28.8316 36.4225 28.8316 36.7647 28.9999C37.3178 28.6269 37.3178 28.6269 37.7812 28.1666C37.786 27.6236 37.786 27.6236 37.6118 27.1666C37.5559 27.1666 37.5 27.1666 37.4424 27.1666ZM33.6622 27.8958C33.2419 28.196 32.8372 28.4599 32.3597 28.6666C32.6952 28.9416 33.0306 29.2166 33.3763 29.4999C33.5021 29.3968 33.6278 29.2937 33.7575 29.1874C34.1366 28.8992 34.4669 28.6897 34.9011 28.4999C34.7892 28.4449 34.6774 28.3899 34.5622 28.3333C34.4563 27.9062 34.4563 27.9062 34.3928 27.4999C34.0962 27.4999 33.8937 27.727 33.6622 27.8958ZM7.28517 27.6666C7.22889 28.167 7.22889 28.167 7.5393 28.4478C7.62317 28.52 7.70703 28.5922 7.79344 28.6666C7.96117 28.6116 8.1289 28.5566 8.30171 28.4999C8.02293 28.2186 7.74043 27.9409 7.45459 27.6666C7.39868 27.6666 7.34277 27.6666 7.28517 27.6666ZM25.7522 29.1666C25.6684 29.2731 25.5845 29.3797 25.4981 29.4895C24.8942 29.9796 24.3126 29.9678 23.5497 29.9999C23.6616 30.1271 23.7734 30.2543 23.8886 30.3853C24.2274 30.8333 24.2274 30.8333 24.2274 31.3333C24.4677 31.2575 24.7076 31.181 24.9475 31.1041C25.0811 31.0615 25.2148 31.019 25.3525 30.9752C25.7296 30.8413 26.0757 30.6837 26.4299 30.4999C26.3181 30.4999 26.2063 30.4999 26.0911 30.4999C26.0352 30.0599 25.9793 29.6199 25.9217 29.1666C25.8658 29.1666 25.8098 29.1666 25.7522 29.1666ZM7.96286 29.3333C8.1865 29.5533 8.41014 29.7733 8.64055 29.9999C8.52873 29.7799 8.41691 29.5599 8.30171 29.3333C8.18989 29.3333 8.07807 29.3333 7.96286 29.3333ZM28.7701 30.4062C28.2604 30.6847 27.8521 30.7675 27.277 30.8333C27.3889 30.9433 27.5007 31.0533 27.6159 31.1666C27.6718 31.4416 27.7277 31.7166 27.7853 31.9999C28.3444 31.7799 28.9035 31.5599 29.4795 31.3333C29.4236 30.9483 29.3677 30.5633 29.3101 30.1666C29.0904 30.1513 29.0904 30.1513 28.7701 30.4062ZM35.5788 30.4999C35.1874 30.7749 34.796 31.0499 34.3928 31.3333C34.4487 31.4433 34.5046 31.5533 34.5622 31.6666C35.134 31.4689 35.519 31.2873 35.9176 30.8333C35.8058 30.7233 35.694 30.6133 35.5788 30.4999ZM37.4424 30.4999C37.3865 30.6099 37.3306 30.7199 37.273 30.8333C37.4407 30.7783 37.6084 30.7233 37.7812 30.6666C37.6694 30.6116 37.5576 30.5566 37.4424 30.4999ZM31.6609 31.0833C31.4767 31.1529 31.4767 31.1529 31.2889 31.2239C31.195 31.26 31.1011 31.2961 31.0043 31.3333C31.1721 31.5533 31.3398 31.7733 31.5126 31.9999C31.904 31.8349 32.2953 31.6699 32.6986 31.4999C32.6986 31.2799 32.6986 31.0599 32.6986 30.8333C32.2978 30.8333 32.0339 30.9412 31.6609 31.0833ZM10.3348 31.6666C10.5025 31.8316 10.6702 31.9966 10.843 32.1666C10.843 32.0016 10.843 31.8366 10.843 31.6666C10.6753 31.6666 10.5076 31.6666 10.3348 31.6666ZM22.8615 31.8333C22.6743 31.8642 22.4871 31.8951 22.2943 31.927C22.1495 31.9511 22.0047 31.9751 21.8555 31.9999C22.0232 32.0824 22.0232 32.0824 22.1944 32.1666C22.1944 32.4966 22.1944 32.8266 22.1944 33.1666C22.9212 33.0566 23.648 32.9466 24.3969 32.8333C24.285 32.4483 24.1732 32.0633 24.058 31.6666C23.66 31.6666 23.252 31.7685 22.8615 31.8333ZM25.4134 32.9999C25.5811 33.0824 25.5811 33.0824 25.7522 33.1666C25.9428 33.5103 25.9428 33.5103 26.0911 33.8333C26.5384 33.7233 26.9856 33.6133 27.4465 33.4999C27.3906 33.2799 27.3346 33.0599 27.277 32.8333C26.6431 32.8333 26.042 32.9188 25.4134 32.9999ZM30.3266 33.1666C29.8794 33.3316 29.4321 33.4966 28.9713 33.6666C29.0272 33.7766 29.0831 33.8866 29.1407 33.9999C29.6088 33.9128 30.0431 33.8151 30.4961 33.6666C30.4402 33.5016 30.3843 33.3366 30.3266 33.1666ZM22.0249 33.1666C21.969 33.2216 21.9131 33.2766 21.8555 33.3333C21.5706 33.3721 21.2844 33.402 20.9978 33.427C20.8421 33.441 20.6864 33.4549 20.5259 33.4693C20.4056 33.4794 20.2853 33.4895 20.1613 33.4999C20.1613 33.7199 20.1613 33.9399 20.1613 34.1666C20.8322 34.1666 21.5031 34.1666 22.1944 34.1666C22.1944 33.8366 22.1944 33.5066 22.1944 33.1666C22.1385 33.1666 22.0825 33.1666 22.0249 33.1666ZM17.7894 34.1666C17.7894 34.3316 17.7894 34.4966 17.7894 34.6666C18.4603 34.7216 19.1312 34.7766 19.8224 34.8333C19.8224 34.6683 19.8224 34.5033 19.8224 34.3333C19.1515 34.2783 18.4806 34.2233 17.7894 34.1666ZM16.7728 34.6666C17.1083 34.8316 17.1083 34.8316 17.4505 34.9999C17.5064 34.8899 17.5623 34.7799 17.62 34.6666C17.3404 34.6666 17.0609 34.6666 16.7728 34.6666ZM24.0368 34.5833C23.7119 34.6245 23.7119 34.6245 23.3803 34.6666C23.4362 34.8316 23.4921 34.9966 23.5497 35.1666C24.0529 35.0566 24.5561 34.9466 25.0745 34.8333C25.0745 34.7233 25.0745 34.6133 25.0745 34.4999C24.7206 34.4999 24.3878 34.5387 24.0368 34.5833ZM27.1076 35.1666C27.7853 35.3333 27.7853 35.3333 27.7853 35.3333L27.1076 35.1666ZM21.5167 35.4999C21.5167 35.5549 21.5167 35.6099 21.5167 35.6666C21.9639 35.6666 22.4112 35.6666 22.8721 35.6666C22.8721 35.6116 22.8721 35.5566 22.8721 35.4999C22.4248 35.4999 21.9775 35.4999 21.5167 35.4999Z" fill="#1F1F1F"/>
<path d="M124.422 27.1397C124.641 27.1381 124.861 27.1365 125.087 27.1349C125.326 27.1341 125.565 27.1333 125.804 27.1327C126.051 27.1318 126.297 27.1308 126.544 27.1298C127.06 27.1281 127.577 27.1271 128.094 27.1265C128.753 27.1256 129.412 27.1216 130.072 27.1169C130.581 27.1138 131.09 27.1129 131.6 27.1126C131.842 27.1121 132.085 27.1108 132.328 27.1086C134.72 27.0885 134.72 27.0885 135.877 27.6666C136.581 28.359 136.882 28.9925 136.915 29.9687C136.908 30.144 136.901 30.3193 136.894 30.4999C136.279 30.4999 135.664 30.4999 135.03 30.4999C134.862 30.1149 134.694 29.7299 134.522 29.3332C133.067 29.3294 131.612 29.3264 130.157 29.3246C129.481 29.3237 128.805 29.3225 128.13 29.3207C127.479 29.3189 126.827 29.3179 126.176 29.3174C125.927 29.3171 125.678 29.3165 125.428 29.3156C125.081 29.3144 124.733 29.3142 124.385 29.3143C124.187 29.3139 123.989 29.3136 123.785 29.3132C123.352 29.2834 123.352 29.2834 123.17 29.4999C123.153 29.8068 123.148 30.1144 123.148 30.4218C123.148 30.6085 123.147 30.7952 123.147 30.9875C123.148 31.1841 123.148 31.3807 123.149 31.5832C123.148 31.7798 123.148 31.9764 123.147 32.1789C123.147 32.459 123.147 32.459 123.148 32.7447C123.148 32.9173 123.148 33.0899 123.148 33.2678C123.125 33.6587 123.125 33.6587 123.34 33.8332C123.686 33.8504 124.033 33.8559 124.379 33.8569C124.714 33.8586 124.714 33.8586 125.055 33.8604C125.235 33.8609 125.235 33.8609 125.418 33.8613C125.794 33.8625 126.169 33.8652 126.545 33.8682C127.613 33.877 128.68 33.885 129.748 33.8876C130.401 33.8892 131.054 33.8942 131.706 33.9011C131.955 33.9032 132.203 33.904 132.451 33.9036C133.793 33.9021 134.902 33.9056 136.046 34.6666C137.006 35.8531 136.935 36.908 136.946 38.3645C136.954 38.6663 136.954 38.6663 136.961 38.9742C136.977 41.1452 136.977 41.1452 136.216 41.9999C135.445 42.5962 134.941 42.7504 133.965 42.7528C133.846 42.754 133.726 42.7552 133.604 42.7564C133.212 42.7593 132.822 42.7574 132.43 42.7551C132.157 42.7556 131.884 42.7562 131.61 42.757C131.038 42.758 130.466 42.7566 129.894 42.7535C129.163 42.7497 128.431 42.7519 127.7 42.7559C127.136 42.7583 126.572 42.7575 126.007 42.7558C125.738 42.7553 125.468 42.7559 125.198 42.7574C124.821 42.7591 124.444 42.7565 124.066 42.7528C123.852 42.7523 123.637 42.7518 123.416 42.7512C122.52 42.6214 122.003 42.2088 121.413 41.552C121.045 40.8148 121.087 40.3145 121.137 39.4999C121.752 39.4999 122.367 39.4999 123.001 39.4999C123.169 40.0774 123.169 40.0774 123.34 40.6666C124.792 40.6781 126.244 40.687 127.696 40.6925C128.37 40.6951 129.044 40.6986 129.719 40.7043C130.369 40.7097 131.019 40.7127 131.67 40.714C131.918 40.7149 132.167 40.7167 132.415 40.7194C132.762 40.7231 133.109 40.7236 133.457 40.7233C133.655 40.7244 133.852 40.7256 134.056 40.7267C134.21 40.7069 134.363 40.687 134.522 40.6666C134.885 40.1299 134.903 39.9871 134.9 39.3697C134.899 39.2157 134.899 39.0616 134.899 38.9029C134.896 38.7424 134.894 38.5819 134.892 38.4166C134.892 38.2561 134.892 38.0956 134.892 37.9302C134.892 37.034 134.892 37.034 134.691 36.1666C134.551 36.1656 134.412 36.1646 134.268 36.1636C132.95 36.1539 131.631 36.1419 130.312 36.1273C129.635 36.1198 128.957 36.1133 128.279 36.1088C127.624 36.1045 126.97 36.0977 126.315 36.0894C126.066 36.0866 125.817 36.0847 125.567 36.0836C125.217 36.082 124.867 36.0773 124.516 36.072C124.317 36.0701 124.118 36.0683 123.913 36.0664C123.14 35.9768 122.454 35.7604 121.859 35.244C121.04 34.1581 121.095 33.3007 121.087 31.9889C121.084 31.6285 121.077 31.2684 121.069 30.9081C121.068 30.6774 121.066 30.4467 121.065 30.216C121.063 30.007 121.06 29.7979 121.058 29.5824C121.177 28.7083 121.592 28.2028 122.238 27.6145C122.952 27.141 123.572 27.1447 124.422 27.1397Z" fill="#1F1F1F"/>
<path d="M49.1823 27.1399C49.3983 27.1383 49.6144 27.1367 49.837 27.135C50.0725 27.1342 50.308 27.1335 50.5434 27.1329C50.7861 27.1319 51.0288 27.131 51.2715 27.13C51.7802 27.1283 52.2889 27.1273 52.7976 27.1267C53.4467 27.1258 54.0956 27.1218 54.7447 27.1171C55.2461 27.1139 55.7476 27.1131 56.2491 27.1128C56.4882 27.1123 56.7273 27.111 56.9664 27.1088C59.8543 27.0841 59.8543 27.0841 60.7453 27.9088C61.5406 28.8125 61.5171 29.3468 61.5003 30.5001C60.8853 30.5001 60.2703 30.5001 59.6367 30.5001C59.4689 29.9226 59.4689 29.9226 59.2978 29.3334C55.5519 29.3334 51.806 29.3334 47.9465 29.3334C47.7318 29.7558 47.7552 30.0538 47.7546 30.5261C47.7544 30.6965 47.7541 30.8669 47.7539 31.0424C47.7546 31.2209 47.7552 31.3995 47.7559 31.5834C47.7553 31.762 47.7546 31.9405 47.7539 32.1244C47.7541 32.2948 47.7544 32.4652 47.7546 32.6407C47.7548 32.7974 47.755 32.9542 47.7552 33.1156C47.7515 33.5047 47.7515 33.5047 47.9465 33.8334C48.0861 33.8344 48.2257 33.8354 48.3695 33.8364C49.6881 33.8461 51.0066 33.8581 52.3251 33.8727C53.0029 33.8801 53.6807 33.8867 54.3586 33.8912C55.0133 33.8955 55.668 33.9023 56.3227 33.9106C56.5719 33.9134 56.821 33.9153 57.0702 33.9164C57.4206 33.918 57.7708 33.9227 58.1212 33.928C58.3202 33.9299 58.5192 33.9317 58.7243 33.9336C59.4972 34.0232 60.1833 34.2396 60.779 34.7559C61.5865 35.827 61.5373 36.6472 61.541 37.9399C61.5427 38.2881 61.5479 38.6362 61.5533 38.9845C61.5544 39.2076 61.5553 39.4306 61.5559 39.6537C61.5575 39.8558 61.5591 40.058 61.5607 40.2662C61.4706 41.1122 61.1979 41.6507 60.5579 42.2188C59.8749 42.684 59.4823 42.6899 58.6484 42.6963C58.5294 42.6973 58.4103 42.6984 58.2877 42.6996C57.8929 42.7029 57.4981 42.7048 57.1033 42.7065C56.9684 42.7071 56.8335 42.7078 56.6946 42.7085C55.9805 42.712 55.2664 42.7144 54.5523 42.7159C53.8154 42.7178 53.0787 42.7235 52.3419 42.7301C51.7747 42.7345 51.2076 42.7359 50.6404 42.7365C50.3689 42.7373 50.0974 42.7392 49.8258 42.7423C49.445 42.7464 49.0644 42.7462 48.6836 42.7451C48.3589 42.7465 48.3589 42.7465 48.0277 42.748C47.2374 42.6391 46.7039 42.3118 46.1742 41.7266C45.7276 40.9532 45.6808 40.3865 45.744 39.5001C46.359 39.5001 46.974 39.5001 47.6077 39.5001C47.7754 40.0776 47.7754 40.0776 47.9465 40.6668C51.6924 40.6668 55.4384 40.6668 59.2978 40.6668C59.5177 40.2342 59.4892 39.9156 59.4898 39.4317C59.49 39.2531 59.4902 39.0744 59.4904 38.8904C59.4898 38.7031 59.4891 38.5159 59.4884 38.323C59.4891 38.1351 59.4897 37.9472 59.4904 37.7537C59.4902 37.5752 59.49 37.3968 59.4898 37.213C59.4895 36.9661 59.4895 36.9661 59.4892 36.7142C59.5107 36.3391 59.5107 36.3391 59.2978 36.1668C58.9568 36.1487 58.6151 36.1424 58.2736 36.1405C57.9444 36.1379 57.9444 36.1379 57.6085 36.1353C57.4904 36.1347 57.3722 36.1341 57.2505 36.1335C56.8807 36.1316 56.511 36.1283 56.1413 36.1247C55.0896 36.1144 54.038 36.1054 52.9863 36.0999C52.3434 36.0963 51.7006 36.0905 51.0578 36.0831C50.8135 36.0807 50.5692 36.0793 50.3249 36.0787C47.3933 36.0717 47.3933 36.0717 46.4993 35.2641C45.5952 34.2546 45.6965 33.2505 45.6847 31.9706C45.6805 31.6395 45.6709 31.3086 45.6613 30.9776C45.6497 29.7264 45.6917 28.7765 46.5911 27.8334C47.4215 27.2158 48.1616 27.146 49.1823 27.1399Z" fill="#1F1F1F"/>
<path d="M67.7791 30.1166C67.9591 30.1159 68.1391 30.1152 68.3246 30.1145C68.7044 30.1135 69.0842 30.1134 69.4639 30.1141C70.0432 30.1147 70.6224 30.1108 71.2016 30.1065C71.5715 30.1062 71.9413 30.106 72.3112 30.1062C72.4834 30.1047 72.6557 30.1031 72.8332 30.1016C74.0689 30.1094 74.9006 30.2575 75.8697 31.0626C77.404 32.8738 76.5792 35.1355 76.5792 37.5001C72.945 37.5001 69.3109 37.5001 65.5667 37.5001C65.3846 39.238 65.3846 39.238 65.9055 40.6668C66.2381 40.6874 66.5714 40.6964 66.9046 40.701C67.1182 40.7043 67.3319 40.7076 67.5521 40.7111C67.787 40.7139 68.022 40.7167 68.2569 40.7195C68.496 40.7229 68.7351 40.7264 68.9741 40.73C69.6044 40.7392 70.2347 40.7474 70.865 40.7555C71.5078 40.7638 72.1505 40.7731 72.7933 40.7823C74.0552 40.8003 75.3172 40.8172 76.5792 40.8334C76.5792 41.4384 76.5792 42.0434 76.5792 42.6668C75.1359 42.6784 73.6926 42.6872 72.2492 42.6927C71.579 42.6953 70.9088 42.6988 70.2386 42.7045C69.5916 42.7099 68.9446 42.7129 68.2975 42.7142C68.0509 42.7151 67.8043 42.7169 67.5577 42.7196C67.2117 42.7233 66.8659 42.7238 66.5199 42.7235C66.3231 42.7246 66.1264 42.7257 65.9236 42.7269C65.1276 42.636 64.5857 42.281 64.0842 41.6772C63.5815 41.0041 63.5132 40.5293 63.5063 39.7085C63.5047 39.5522 63.5031 39.3959 63.5014 39.2348C63.5007 39.0669 63.4999 38.899 63.4992 38.726C63.4982 38.5521 63.4973 38.3783 63.4963 38.1992C63.4947 37.8314 63.4936 37.4637 63.4929 37.0959C63.4913 36.5352 63.486 35.9745 63.4807 35.4138C63.4796 35.0561 63.4787 34.6983 63.478 34.3406C63.4749 34.0903 63.4749 34.0903 63.4717 33.8349C63.4756 32.627 63.6346 31.8208 64.4337 30.8647C65.444 30.0557 66.536 30.1155 67.7791 30.1166ZM65.5667 32.5001C65.5667 33.4901 65.5667 34.4801 65.5667 35.5001C68.5299 35.5001 71.4931 35.5001 74.5461 35.5001C74.5461 34.5101 74.5461 33.5201 74.5461 32.5001C74.1238 32.0847 73.9946 32.1247 73.4121 32.1236C73.247 32.1226 73.0819 32.1215 72.9118 32.1204C72.733 32.1211 72.5543 32.1218 72.3701 32.1225C72.1871 32.1222 72.0041 32.1219 71.8156 32.1215C71.4282 32.1213 71.0408 32.1219 70.6534 32.1233C70.0588 32.1251 69.4643 32.1233 68.8698 32.1212C68.4941 32.1214 68.1184 32.1218 67.7427 32.1225C67.4745 32.1215 67.4745 32.1215 67.201 32.1204C66.9533 32.122 66.9533 32.122 66.7007 32.1236C66.4821 32.124 66.4821 32.124 66.2592 32.1244C65.8682 32.1349 65.8682 32.1349 65.5667 32.5001Z" fill="#1F1F1F"/>
<path d="M170.933 30.1372C171.099 30.1351 171.264 30.1329 171.434 30.1307C171.7 30.1289 171.7 30.1289 171.972 30.127C172.248 30.125 172.248 30.125 172.529 30.1229C172.918 30.1206 173.307 30.1188 173.696 30.1175C174.289 30.1147 174.882 30.1073 175.474 30.1C175.853 30.0983 176.231 30.0969 176.61 30.0958C176.786 30.0928 176.962 30.0899 177.144 30.0869C178.215 30.09 179.037 30.2186 179.927 30.8334C181.717 32.6846 180.774 34.6425 180.774 37.5001C177.14 37.5001 173.506 37.5001 169.762 37.5001C169.579 39.238 169.579 39.238 170.1 40.6667C170.433 40.6873 170.766 40.6964 171.099 40.7009C171.313 40.7043 171.527 40.7076 171.747 40.711C171.982 40.7138 172.217 40.7167 172.452 40.7195C172.691 40.7229 172.93 40.7264 173.169 40.7299C173.799 40.7392 174.43 40.7474 175.06 40.7554C175.703 40.7638 176.345 40.7731 176.988 40.7823C178.25 40.8002 179.512 40.8171 180.774 40.8334C180.774 41.4384 180.774 42.0434 180.774 42.6667C179.334 42.6822 177.893 42.694 176.453 42.7013C175.784 42.7047 175.115 42.7094 174.446 42.717C173.8 42.7243 173.154 42.7282 172.508 42.73C172.262 42.7312 172.016 42.7336 171.77 42.7372C171.425 42.7421 171.08 42.7427 170.734 42.7424C170.439 42.7446 170.439 42.7446 170.139 42.7469C169.287 42.6219 168.766 42.1974 168.184 41.5938C167.75 40.9464 167.708 40.3158 167.704 39.5535C167.703 39.4039 167.702 39.2542 167.701 39.1C167.7 38.9403 167.7 38.7805 167.7 38.6159C167.7 38.4497 167.699 38.2835 167.698 38.1122C167.698 37.7612 167.697 37.4101 167.697 37.0591C167.697 36.524 167.694 35.9889 167.69 35.4538C167.69 35.112 167.69 34.7702 167.689 34.4284C167.688 34.2694 167.687 34.1103 167.686 33.9464C167.693 31.9452 167.693 31.9452 168.373 31.1368C168.547 30.9969 168.547 30.9969 168.724 30.8542C168.839 30.7584 168.954 30.6626 169.072 30.5639C169.666 30.1735 170.231 30.1452 170.933 30.1372ZM169.762 32.5001C169.762 33.4901 169.762 34.4801 169.762 35.5001C172.725 35.5001 175.688 35.5001 178.741 35.5001C178.741 34.5101 178.741 33.5201 178.741 32.5001C178.319 32.0846 178.19 32.1246 177.607 32.1236C177.442 32.1225 177.277 32.1215 177.107 32.1204C176.928 32.1211 176.749 32.1218 176.565 32.1224C176.382 32.1221 176.199 32.1218 176.01 32.1215C175.623 32.1213 175.236 32.1219 174.848 32.1233C174.254 32.125 173.659 32.1233 173.065 32.1211C172.689 32.1214 172.313 32.1218 171.938 32.1224C171.669 32.1214 171.669 32.1214 171.396 32.1204C171.148 32.122 171.148 32.122 170.896 32.1236C170.677 32.124 170.677 32.124 170.454 32.1244C170.063 32.1349 170.063 32.1349 169.762 32.5001Z" fill="#1F1F1F"/>
<path d="M138.927 30.1666C140.663 30.1563 142.4 30.146 144.189 30.1353C144.736 30.1308 145.282 30.1262 145.845 30.1215C146.28 30.1201 146.715 30.1188 147.149 30.1178C147.261 30.1164 147.373 30.1151 147.488 30.1138C150.086 30.0849 150.086 30.0849 151.263 31.0624C151.827 31.729 152.013 32.3105 152.021 33.1717C152.023 33.3341 152.026 33.4966 152.028 33.664C152.028 33.8378 152.029 34.0116 152.029 34.1907C152.031 34.4616 152.031 34.4616 152.032 34.738C152.034 35.1198 152.035 35.5015 152.035 35.8833C152.036 36.4649 152.042 37.0463 152.048 37.6278C152.049 37.9995 152.05 38.3711 152.05 38.7428C152.053 38.9155 152.055 39.0883 152.058 39.2663C152.049 40.5771 151.83 41.4699 150.877 42.4125C149.97 42.7969 149.117 42.7486 148.14 42.7317C147.935 42.7307 147.729 42.7298 147.518 42.7288C146.864 42.7251 146.209 42.7167 145.555 42.7083C145.111 42.7049 144.667 42.7019 144.222 42.6991C143.135 42.6924 142.047 42.6793 140.96 42.6666C140.96 44.3166 140.96 45.9666 140.96 47.6666C140.289 47.6666 139.618 47.6666 138.927 47.6666C138.927 41.8916 138.927 36.1166 138.927 30.1666ZM140.96 32.4999C140.908 32.8545 140.908 32.8545 140.916 33.2668C140.915 33.4259 140.914 33.585 140.913 33.7489C140.913 33.9211 140.914 34.0933 140.915 34.2708C140.914 34.4471 140.914 34.6234 140.914 34.805C140.913 35.1782 140.914 35.5515 140.915 35.9247C140.917 36.4976 140.915 37.0703 140.913 37.6431C140.913 38.0051 140.914 38.3671 140.915 38.7291C140.914 38.9013 140.913 39.0735 140.913 39.251C140.914 39.41 140.915 39.5691 140.916 39.733C140.916 39.8734 140.916 40.0137 140.917 40.1584C140.928 40.5373 140.928 40.5373 141.298 40.8333C141.664 40.8876 141.664 40.8876 142.091 40.8843C142.255 40.887 142.42 40.8896 142.59 40.8924C142.768 40.8933 142.946 40.8942 143.13 40.8951C143.404 40.8974 143.404 40.8974 143.683 40.8997C144.07 40.9021 144.456 40.9036 144.843 40.9042C145.436 40.9062 146.028 40.9144 146.621 40.9228C146.996 40.9243 147.371 40.9256 147.746 40.9263C147.924 40.9296 148.102 40.9329 148.286 40.9362C149.208 40.9549 149.208 40.9549 149.966 40.5124C150.166 39.7922 150.181 39.1181 150.176 38.3743C150.177 38.1398 150.177 38.1398 150.177 37.9006C150.178 37.571 150.177 37.2414 150.175 36.9117C150.172 36.4073 150.175 35.9031 150.178 35.3987C150.178 35.078 150.177 34.7574 150.176 34.4368C150.177 34.2861 150.178 34.1354 150.179 33.9801C150.177 33.8393 150.176 33.6986 150.174 33.5536C150.174 33.3686 150.174 33.3686 150.173 33.1799C150.087 32.7192 149.938 32.4956 149.6 32.1666C149.218 32.0682 149.218 32.0682 148.786 32.0856C148.538 32.0841 148.538 32.0841 148.286 32.0825C148.108 32.0849 147.93 32.0873 147.746 32.0898C147.472 32.09 147.472 32.09 147.193 32.0902C146.806 32.0912 146.42 32.0939 146.034 32.098C145.44 32.1041 144.848 32.1048 144.254 32.1047C143.879 32.1064 143.505 32.1083 143.13 32.1106C142.951 32.111 142.773 32.1113 142.59 32.1117C142.343 32.1149 142.343 32.1149 142.091 32.1182C141.873 32.1201 141.873 32.1201 141.651 32.122C141.261 32.1354 141.261 32.1354 140.96 32.4999Z" fill="#1F1F1F"/>
<path d="M110.205 30.0839C110.388 30.0837 110.571 30.0834 110.76 30.0832C111.146 30.0834 111.532 30.0854 111.917 30.0888C112.506 30.0937 113.094 30.0923 113.683 30.0901C114.059 30.0911 114.435 30.0925 114.811 30.0943C115.073 30.0936 115.073 30.0936 115.341 30.0928C116.466 30.1072 117.365 30.1997 118.25 30.9472C118.369 31.0919 118.369 31.0919 118.49 31.2395C118.572 31.3355 118.653 31.4316 118.737 31.5305C119.163 32.1833 119.126 32.8582 119.127 33.6165C119.127 33.8316 119.127 34.0468 119.127 34.2685C119.127 34.3799 119.126 34.4913 119.126 34.6061C119.125 34.9484 119.126 35.2907 119.127 35.6331C119.127 35.8476 119.127 36.0621 119.127 36.2831C119.126 36.4805 119.126 36.6779 119.126 36.8812C119.104 37.3333 119.104 37.3333 118.935 37.4999C118.592 37.5156 118.248 37.5195 117.904 37.5188C117.574 37.5188 117.574 37.5188 117.236 37.5188C116.994 37.518 116.752 37.5171 116.509 37.5162C116.262 37.5159 116.016 37.5157 115.769 37.5155C115.119 37.5148 114.468 37.5132 113.818 37.5114C113.155 37.5097 112.492 37.5089 111.828 37.5081C110.526 37.5063 109.224 37.5034 107.922 37.4999C107.941 37.9341 107.963 38.368 107.986 38.802C107.991 38.925 107.996 39.048 108.002 39.1747C108.036 39.8031 108.069 40.1327 108.43 40.6666C108.895 40.7464 108.895 40.7464 109.449 40.7387C109.662 40.742 109.876 40.7453 110.096 40.7487C110.33 40.7498 110.564 40.7509 110.798 40.7519C111.037 40.7547 111.276 40.7577 111.515 40.7609C112.144 40.7689 112.773 40.7738 113.402 40.7782C114.043 40.7831 114.685 40.7909 115.326 40.7984C116.586 40.8128 117.845 40.824 119.104 40.8333C119.104 41.4383 119.104 42.0433 119.104 42.6666C117.644 42.6859 116.185 42.7007 114.725 42.7098C114.048 42.7141 113.37 42.72 112.692 42.7295C112.037 42.7385 111.383 42.7435 110.728 42.7457C110.479 42.7472 110.229 42.7502 109.98 42.7547C107.787 42.7928 107.787 42.7928 107.029 42.3178C105.975 41.2136 105.979 40.1933 105.979 38.7402C105.978 38.5563 105.976 38.3725 105.975 38.183C105.973 37.7954 105.973 37.4078 105.974 37.0202C105.974 36.4294 105.967 35.839 105.959 35.2483C105.958 34.8706 105.958 34.4929 105.958 34.1152C105.955 33.9398 105.952 33.7644 105.949 33.5837C105.96 32.4756 106.103 31.6507 106.906 30.8333C107.896 30.0582 108.988 30.0709 110.205 30.0839ZM108.092 32.3333C107.752 33.336 107.922 34.4429 107.922 35.4999C110.941 35.4999 113.96 35.4999 117.071 35.4999C117.071 34.5099 117.071 33.5199 117.071 32.4999C116.769 32.1345 116.769 32.1345 116.378 32.1254C116.233 32.1256 116.087 32.1259 115.937 32.1261C115.772 32.1256 115.607 32.1251 115.437 32.1246C115.258 32.1257 115.079 32.1269 114.895 32.1282C114.712 32.1283 114.529 32.1283 114.34 32.1284C113.953 32.1289 113.566 32.1302 113.178 32.1323C112.584 32.1353 111.989 32.1357 111.395 32.1357C111.019 32.1365 110.643 32.1375 110.268 32.1386C110.089 32.1388 109.91 32.139 109.726 32.1392C109.478 32.1408 109.478 32.1408 109.226 32.1424C109.007 32.1433 109.007 32.1433 108.784 32.1443C108.42 32.1446 108.42 32.1446 108.092 32.3333Z" fill="#1F1F1F"/>
<path d="M196.839 30.1398C197.004 30.1382 197.17 30.1366 197.341 30.1349C197.609 30.1339 197.609 30.1339 197.883 30.1328C198.068 30.1318 198.252 30.1309 198.442 30.1299C198.833 30.1283 199.224 30.1272 199.615 30.1266C200.211 30.125 200.807 30.1198 201.403 30.1146C201.782 30.1135 202.162 30.1126 202.542 30.1119C202.72 30.1099 202.897 30.1078 203.08 30.1057C204.186 30.109 205.109 30.1724 205.974 30.9225C206.605 31.7587 206.72 32.2126 206.712 33.2356C206.712 33.3434 206.712 33.4512 206.712 33.5623C206.711 33.9651 206.708 34.368 206.706 34.7708C206.703 35.6714 206.699 36.5721 206.696 37.5C203.062 37.5 199.427 37.5 195.683 37.5C195.517 40.0772 195.517 40.0772 196.191 40.6666C196.651 40.722 196.651 40.722 197.194 40.7198C197.404 40.7231 197.615 40.7264 197.831 40.7298C198.062 40.7318 198.292 40.7337 198.522 40.7356C198.757 40.7388 198.992 40.742 199.227 40.7454C199.846 40.754 200.465 40.7606 201.084 40.7668C201.716 40.7735 202.347 40.782 202.978 40.7903C204.217 40.8065 205.457 40.8205 206.696 40.8333C206.696 41.4383 206.696 42.0433 206.696 42.6666C205.258 42.686 203.821 42.7008 202.383 42.7098C201.716 42.7142 201.048 42.72 200.381 42.7295C199.736 42.7386 199.091 42.7435 198.446 42.7457C198.201 42.7472 197.955 42.7502 197.71 42.7547C195.55 42.7929 195.55 42.7929 194.792 42.3074C193.743 41.2367 193.742 40.305 193.746 38.8808C193.745 38.6926 193.744 38.5045 193.743 38.3106C193.742 37.9134 193.743 37.5163 193.744 37.1192C193.745 36.513 193.741 35.9072 193.735 35.3011C193.735 34.9145 193.735 34.5279 193.736 34.1412C193.734 33.9608 193.732 33.7804 193.73 33.5945C193.74 32.5265 193.844 31.8652 194.497 31C195.273 30.4085 195.865 30.1474 196.839 30.1398ZM195.683 32.6666C195.683 33.6016 195.683 34.5366 195.683 35.5C198.702 35.5 201.721 35.5 204.832 35.5C204.832 34.51 204.832 33.52 204.832 32.5C204.411 32.0854 204.282 32.1239 203.701 32.1209C203.536 32.1193 203.372 32.1177 203.202 32.116C203.024 32.1162 202.846 32.1163 202.662 32.1165C202.479 32.1158 202.297 32.1151 202.109 32.1143C201.722 32.1134 201.335 32.1133 200.949 32.114C200.356 32.1146 199.763 32.1106 199.171 32.1064C198.795 32.106 198.42 32.1059 198.045 32.1061C197.867 32.1046 197.689 32.103 197.506 32.1014C197.258 32.103 197.258 32.103 197.006 32.1046C196.861 32.1045 196.715 32.1044 196.565 32.1043C196.118 32.1424 196.118 32.1424 195.683 32.6666Z" fill="#1F1F1F"/>
<path d="M153.327 26.1667C153.998 26.1667 154.669 26.1667 155.36 26.1667C155.36 27.4867 155.36 28.8067 155.36 30.1667C155.97 30.1609 156.58 30.1551 157.209 30.1492C157.802 30.1453 158.394 30.1422 158.987 30.1393C159.398 30.1368 159.809 30.1334 160.22 30.129C160.812 30.1229 161.403 30.1201 161.995 30.1179C162.178 30.1153 162.361 30.1128 162.549 30.1101C163.822 30.1098 164.665 30.2332 165.663 31.0626C166.293 31.8054 166.415 32.4211 166.411 33.3766C166.411 33.5834 166.411 33.7902 166.411 34.0033C166.41 34.2273 166.408 34.4512 166.406 34.6752C166.405 34.9057 166.405 35.1362 166.405 35.3667C166.403 35.9714 166.4 36.5761 166.396 37.1808C166.393 37.7986 166.391 38.4164 166.389 39.0343C166.386 40.2451 166.38 41.4559 166.373 42.6667C165.758 42.6667 165.143 42.6667 164.509 42.6667C164.504 42.2239 164.504 42.2239 164.499 41.772C164.488 40.7968 164.475 39.8215 164.461 38.8463C164.452 38.255 164.444 37.6637 164.438 37.0724C164.43 36.3927 164.42 35.713 164.41 35.0333C164.408 34.8208 164.406 34.6083 164.404 34.3893C164.401 34.1925 164.397 33.9956 164.394 33.7928C164.392 33.6193 164.389 33.4457 164.387 33.2669C164.37 32.7943 164.37 32.7943 164.001 32.3334C163.634 32.2594 163.634 32.2594 163.203 32.274C163.038 32.2735 162.872 32.273 162.701 32.2725C162.522 32.2745 162.343 32.2766 162.158 32.2787C161.975 32.279 161.791 32.2794 161.602 32.2797C161.214 32.2808 160.826 32.2831 160.438 32.2865C159.841 32.2917 159.245 32.2934 158.649 32.2944C158.272 32.2959 157.896 32.2976 157.52 32.2996C157.25 32.3006 157.25 32.3006 156.976 32.3017C156.81 32.3033 156.645 32.3049 156.475 32.3066C156.329 32.3077 156.183 32.3088 156.033 32.31C155.699 32.2975 155.699 32.2975 155.53 32.5001C155.509 32.817 155.5 33.1347 155.495 33.4523C155.492 33.6558 155.488 33.8593 155.485 34.069C155.482 34.2928 155.479 34.5166 155.476 34.7403C155.473 34.968 155.469 35.1957 155.466 35.4234C155.456 36.0237 155.448 36.6241 155.44 37.2244C155.431 37.8366 155.422 38.4488 155.412 39.061C155.394 40.2629 155.377 41.4648 155.36 42.6667C154.69 42.6667 154.019 42.6667 153.327 42.6667C153.327 37.2217 153.327 31.7767 153.327 26.1667Z" fill="#1F1F1F"/>
<path d="M88.9468 30.1667C89.6736 30.1667 90.4004 30.1667 91.1493 30.1667C92.2265 32.0288 93.2698 33.9079 94.3048 35.793C94.8773 36.8358 95.4535 37.8765 96.0308 38.9167C96.1192 39.0761 96.2076 39.2354 96.2987 39.3996C96.5023 39.7664 96.7059 40.1333 96.9096 40.5001C97.2846 40.0301 97.5867 39.5551 97.8719 39.0281C97.9584 38.8693 98.0449 38.7106 98.1339 38.5471C98.2261 38.3769 98.3183 38.2067 98.4133 38.0313C99.2763 36.4499 100.159 34.8811 101.062 33.3215C101.667 32.2763 102.256 31.2239 102.839 30.1667C103.566 30.1667 104.293 30.1667 105.042 30.1667C104.661 31.2913 104.661 31.2913 104.389 31.7625C104.295 31.9257 104.295 31.9257 104.2 32.0923C104.132 32.2097 104.064 32.3271 103.994 32.448C103.84 32.7153 103.687 32.9827 103.534 33.2501C103.451 33.396 103.367 33.5418 103.28 33.6921C102.881 34.39 102.487 35.0908 102.093 35.7914C101.141 37.4823 100.183 39.1704 99.218 40.8542C99.1243 41.0182 99.0305 41.1822 98.9339 41.3511C98.8481 41.5004 98.7624 41.6497 98.674 41.8035C98.5988 41.9345 98.5236 42.0656 98.4461 42.2007C98.265 42.5001 98.265 42.5001 98.0956 42.6667C97.627 42.7299 97.627 42.7299 97.0367 42.7605C96.8436 42.7745 96.6506 42.7884 96.4517 42.8028C95.8397 42.6537 95.7941 42.622 95.4755 42.1316C95.329 41.8673 95.1862 41.601 95.046 41.3334C94.8529 40.994 94.6594 40.6548 94.4656 40.3158C94.2457 39.9226 94.0262 39.5291 93.8071 39.1355C93.6889 38.924 93.5708 38.7125 93.4525 38.501C93.2059 38.0597 92.9594 37.6182 92.713 37.1768C92.1532 36.1738 91.5916 35.1718 91.0298 34.1699C90.8565 33.8609 90.6835 33.5519 90.5104 33.2428C90.4041 33.0531 90.2978 32.8635 90.1883 32.6681C90.0411 32.4052 90.0411 32.4052 89.8908 32.137C89.6683 31.7441 89.4405 31.3552 89.2089 30.9675C88.9468 30.5001 88.9468 30.5001 88.9468 30.1667Z" fill="#1F1F1F"/>
<path d="M81.5914 30.1478C81.8203 30.1478 81.8203 30.1478 82.0538 30.1478C82.2987 30.1491 82.2987 30.1491 82.5486 30.1504C82.7168 30.1507 82.8851 30.1509 83.0584 30.1511C83.5953 30.1521 84.1321 30.1542 84.669 30.1563C85.0332 30.1571 85.3974 30.1579 85.7616 30.1586C86.654 30.1604 87.5463 30.1632 88.4386 30.1667C88.4432 30.4688 88.4465 30.7708 88.4492 31.0729C88.4512 31.2412 88.4532 31.4094 88.4552 31.5827C88.4386 32 88.4386 32 88.2692 32.1667C88.0362 32.1862 87.8022 32.1946 87.5684 32.1983C87.4197 32.2011 87.271 32.2038 87.1178 32.2067C86.8753 32.2101 86.8753 32.2101 86.6279 32.2136C86.4631 32.2166 86.2983 32.2197 86.1285 32.2229C85.42 32.236 84.7115 32.2473 84.003 32.2587C83.4873 32.2673 82.9716 32.2769 82.4559 32.2865C82.2134 32.2899 82.2134 32.2899 81.966 32.2933C81.8173 32.2961 81.6687 32.2989 81.5155 32.3018C81.3839 32.3039 81.2524 32.306 81.1169 32.3081C80.8106 32.3015 80.8106 32.3015 80.6452 32.5C80.6243 32.817 80.615 33.1346 80.6104 33.4522C80.607 33.6557 80.6036 33.8593 80.6002 34.069C80.5973 34.2927 80.5944 34.5165 80.5916 34.7403C80.5881 34.968 80.5845 35.1957 80.5809 35.4234C80.5716 36.0237 80.5632 36.624 80.555 37.2243C80.5465 37.8365 80.5371 38.4487 80.5277 39.0609C80.5095 40.2628 80.4924 41.4647 80.4758 42.6667C79.8049 42.6667 79.1339 42.6667 78.4427 42.6667C78.435 41.383 78.4288 40.0993 78.4251 38.8156C78.4234 38.2195 78.421 37.6233 78.4171 37.0272C78.4134 36.4512 78.4114 35.8752 78.4106 35.2992C78.4096 34.974 78.407 34.6487 78.4043 34.3235C78.404 31.9486 78.404 31.9486 79.0873 31.1367C79.2609 30.9969 79.2609 30.9969 79.4381 30.8542C79.5529 30.7584 79.6678 30.6625 79.7862 30.5638C80.3654 30.1833 80.9062 30.1459 81.5914 30.1478Z" fill="#1F1F1F"/>
<path d="M185.786 30.1478C186.015 30.1478 186.015 30.1478 186.249 30.1478C186.494 30.1491 186.494 30.1491 186.744 30.1504C186.912 30.1506 187.08 30.1509 187.253 30.1511C187.79 30.152 188.327 30.1541 188.864 30.1563C189.228 30.1571 189.592 30.1579 189.957 30.1585C190.849 30.1604 191.741 30.1633 192.634 30.1667C192.634 30.8267 192.634 31.4867 192.634 32.1667C192.404 32.1709 192.173 32.175 191.936 32.1793C191.086 32.195 190.236 32.2117 189.386 32.2287C189.017 32.236 188.648 32.2429 188.28 32.2496C187.751 32.2592 187.222 32.2698 186.694 32.2806C186.528 32.2834 186.362 32.2862 186.191 32.2891C185.962 32.294 185.962 32.294 185.729 32.2991C185.526 32.303 185.526 32.303 185.319 32.307C185.006 32.3007 185.006 32.3007 184.84 32.5C184.819 32.8169 184.81 33.1346 184.805 33.4522C184.802 33.6557 184.799 33.8593 184.795 34.069C184.792 34.2927 184.789 34.5165 184.787 34.7402C184.783 34.9679 184.78 35.1956 184.776 35.4233C184.767 36.0237 184.758 36.624 184.75 37.2243C184.741 37.8365 184.732 38.4487 184.723 39.0609C184.704 40.2628 184.687 41.4647 184.671 42.6667C184.056 42.6667 183.441 42.6667 182.807 42.6667C182.791 41.2932 182.779 39.9198 182.772 38.5462C182.768 37.9084 182.764 37.2706 182.756 36.6327C182.749 36.0168 182.745 35.4008 182.743 34.7848C182.742 34.5503 182.739 34.3157 182.735 34.0812C182.73 33.7517 182.73 33.4222 182.73 33.0927C182.729 32.9054 182.727 32.7182 182.726 32.5252C182.855 31.6915 183.29 31.1768 183.908 30.6146C184.53 30.2021 185.047 30.1457 185.786 30.1478Z" fill="#1F1F1F"/>
<path d="M35.2398 21.9999C35.6994 22.2624 35.7382 22.4685 35.8963 22.9686C35.9231 23.6406 35.7904 23.9436 35.4092 24.4999C34.845 24.9793 34.511 25.1527 33.768 25.2395C33.2067 25.1666 33.2067 25.1666 32.8891 24.9895C32.5942 24.4899 32.5492 24.074 32.5291 23.4999C33.0696 22.2296 33.9185 21.8531 35.2398 21.9999Z" fill="#1F1F1F"/>
<path d="M31.3432 21.8333C31.8434 21.9796 31.9772 22.1013 32.2644 22.5312C32.4037 23.2167 32.1953 23.5664 31.8514 24.1667C31.3317 24.678 30.903 24.9821 30.1572 25C29.6198 24.8031 29.2562 24.6433 28.8971 24.1979C28.7557 23.657 28.7869 23.3667 28.9712 22.8333C29.6444 22.0126 30.2488 21.6708 31.3432 21.8333Z" fill="#1F1F1F"/>
<path d="M26.737 24.7709C27.1076 25 27.1076 25 27.3618 25.4688C27.4465 26 27.4465 26 27.2559 26.448C26.8407 26.9517 26.5087 27.2864 25.8476 27.4115C24.6847 27.4255 24.6847 27.4255 24.111 26.9792C23.8886 26.5 23.8886 26.5 23.8674 26C24.3867 24.6379 25.4267 24.4844 26.737 24.7709Z" fill="#1F1F1F"/>
<path d="M32.3598 18.1666C32.7943 18.5173 32.9894 18.7784 33.1076 19.3229C33.1556 19.9786 33.0768 20.2753 32.6986 20.8333C31.9946 21.295 31.6708 21.2841 30.835 21.1666C30.3158 20.8261 30.1875 20.5931 29.9985 20.0104C29.9856 19.3897 30.1099 19.1514 30.4961 18.6666C31.0642 18.0879 31.5628 18.0546 32.3598 18.1666Z" fill="#1F1F1F"/>
<path d="M36.2565 18.4999C36.6774 19.1209 36.6598 19.4311 36.5954 20.1666C36.2867 20.8027 35.9329 21.349 35.2612 21.6353C34.7666 21.6783 34.4865 21.5684 34.054 21.3333C33.6521 20.8061 33.6607 20.3094 33.7152 19.6666C33.9158 19.0911 34.209 18.8175 34.7317 18.4999C35.2819 18.2904 35.6956 18.3257 36.2565 18.4999Z" fill="#1F1F1F"/>
<path d="M27.9548 21.6666C28.283 21.9582 28.283 21.9582 28.4631 22.3332C28.4631 22.9781 28.3296 23.2823 27.9548 23.8124C27.3504 24.2335 27.0014 24.2802 26.2764 24.2362C25.9217 24.1666 25.9217 24.1666 25.4876 23.8957C25.1677 23.3759 25.1446 23.0989 25.244 22.4999C25.5737 21.951 25.8287 21.7123 26.4088 21.427C27.0513 21.3132 27.3708 21.3857 27.9548 21.6666Z" fill="#1F1F1F"/>
<path d="M28.463 18C28.9713 18.3437 28.9713 18.3437 29.3101 18.8333C29.3355 19.5457 29.2583 19.8672 28.7807 20.4062C28.1685 20.7335 27.7955 20.7528 27.1076 20.6666C26.7052 20.4896 26.7052 20.4896 26.4299 20.1666C26.2605 19.6041 26.2605 19.6041 26.2605 19C26.8641 18.0581 27.3438 17.888 28.463 18Z" fill="#1F1F1F"/>
<path d="M39.1367 18.4999C39.4756 18.7395 39.4756 18.7395 39.645 19.1666C39.6957 19.8183 39.6565 20.4029 39.2777 20.955C39.0308 21.1874 39.0308 21.1874 38.459 21.4999C37.8025 21.4687 37.8025 21.4687 37.2731 21.3332C36.8793 20.1507 36.8793 20.1507 37.1354 19.4478C37.2367 19.3 37.3381 19.1522 37.4425 18.9999C37.5124 18.8968 37.5823 18.7937 37.6543 18.6874C38.1521 18.3726 38.5648 18.4296 39.1367 18.4999Z" fill="#1F1F1F"/>
<path d="M22.5333 23.9999C23.0309 24.2603 23.0309 24.2603 23.3804 24.6666C23.4629 25.2452 23.4978 25.6294 23.2004 26.1457C22.6983 26.4325 22.262 26.4706 21.6862 26.4999C21.1485 26.3471 20.8961 26.2227 20.5002 25.8332C20.3523 25.3725 20.2989 25.0996 20.4473 24.6353C20.9802 23.9113 21.6727 23.9108 22.5333 23.9999Z" fill="#1F1F1F"/>
<path d="M33.3763 14.8333C33.7737 15.4196 33.8134 15.6429 33.7152 16.3333C33.3284 16.8225 33.0308 17.1026 32.4445 17.3333C31.887 17.3333 31.6148 17.1586 31.1738 16.8333C30.9119 16.318 30.9547 15.9009 31.0044 15.3333C31.3056 14.9311 31.5422 14.7308 31.9998 14.5208C32.5237 14.4904 32.8985 14.6289 33.3763 14.8333Z" fill="#1F1F1F"/>
<path d="M23.7191 21C24.1321 21.2993 24.3337 21.5383 24.5556 21.9895C24.5717 22.5123 24.383 22.7616 24.0579 23.1666C23.549 23.4643 23.2736 23.5049 22.6814 23.4583C22.1943 23.3333 22.1943 23.3333 21.686 23C21.5272 22.4375 21.5272 22.4375 21.5166 21.8333C22.1473 21.0203 22.7016 20.9137 23.7191 21Z" fill="#1F1F1F"/>
<path d="M36.7648 15C37.1904 15.6281 37.1934 15.9219 37.1036 16.6667C36.8732 17.1393 36.6814 17.3109 36.2565 17.6667C35.6423 17.6979 35.6423 17.6979 35.0705 17.5C34.6029 17.0112 34.5623 16.7441 34.5623 16.0729C34.7317 15.5 34.7317 15.5 35.0917 15.0833C35.7317 14.7548 36.0785 14.8089 36.7648 15Z" fill="#1F1F1F"/>
<path d="M21.3473 26.6667C21.8768 27.0313 21.8768 27.0313 22.1944 27.5001C22.2156 27.9376 22.2156 27.9376 22.025 28.3334C21.4506 28.83 20.8947 28.9322 20.1514 28.9031C19.5622 28.7783 19.3068 28.4733 18.9754 28.0001C18.9627 27.4768 19.0624 27.2648 19.399 26.8647C20.0467 26.562 20.6449 26.5354 21.3473 26.6667Z" fill="#1F1F1F"/>
<path d="M29.1408 14.3333C29.6586 14.6818 29.7956 14.8822 29.9138 15.4896C29.7837 16.1862 29.551 16.4208 28.9714 16.8333C28.3678 16.9375 28.3678 16.9375 27.7854 16.8333C27.3619 16.4896 27.3619 16.4896 27.1077 16C27.0971 15.3958 27.0971 15.3958 27.2772 14.8333C27.8607 14.3249 28.3754 14.2212 29.1408 14.3333Z" fill="#1F1F1F"/>
<path d="M24.5663 17.6668C24.9793 18.0209 24.9793 18.0209 25.244 18.5001C25.2652 19.0105 25.2652 19.0105 25.0746 19.5001C24.5828 19.929 24.2804 20.1668 23.6133 20.1668C23.1092 19.958 22.8568 19.7696 22.5333 19.3334C22.4541 18.7887 22.4223 18.4841 22.7556 18.0314C23.3322 17.6322 23.8823 17.5844 24.5663 17.6668Z" fill="#1F1F1F"/>
<path d="M19.4835 28.8334C19.9273 29.0151 20.269 29.2318 20.6695 29.5C20.6906 29.8959 20.6906 29.8959 20.6695 30.3334C20.2102 30.7852 19.9627 30.7986 19.3141 30.8334C18.4936 30.6584 17.9273 30.537 17.4504 29.8334C17.4928 29.3959 17.4928 29.3959 17.6199 29C18.208 28.7107 18.8405 28.7541 19.4835 28.8334Z" fill="#1F1F1F"/>
<path d="M39.6449 15.0001C39.9732 15.2605 39.9732 15.2605 40.1532 15.6667C40.1409 16.3345 40.0363 16.7435 39.6979 17.323C39.3061 17.6667 39.3061 17.6667 38.7766 17.7396C38.2895 17.6667 38.2895 17.6667 37.9507 17.3334C37.7536 16.6064 37.7548 16.165 38.1201 15.5001C38.5342 14.9095 38.944 14.8995 39.6449 15.0001Z" fill="#1F1F1F"/>
<path d="M41.8473 18.3333C42.11 18.5916 42.0581 18.8394 42.0697 19.1978C42.0571 19.9761 41.9063 20.4277 41.3391 20.9999C40.7037 21.1458 40.7037 21.1458 40.1531 21.1666C39.8417 20.622 39.7884 20.2542 39.9202 19.6562C40.2385 18.6076 40.7089 18.2088 41.8473 18.3333Z" fill="#1F1F1F"/>
<path d="M33.5458 10.9999C33.8634 11.2707 33.8634 11.2707 34.054 11.6666C34.0428 12.2959 34.0169 12.679 33.5987 13.1666C33.0494 13.4002 32.7535 13.3551 32.1904 13.1666C31.7673 12.6967 31.6821 12.4404 31.6821 11.8124C31.8516 11.3332 31.8516 11.3332 32.2328 11.0103C32.7772 10.8034 33.005 10.7899 33.5458 10.9999Z" fill="#1F1F1F"/>
<path d="M25.4134 14.1668C25.7523 14.6668 25.7523 14.6668 25.7311 15.2501C25.5829 15.8334 25.5829 15.8334 25.3075 16.1668C24.7276 16.407 24.3213 16.3094 23.7192 16.1668C23.3112 15.7654 23.265 15.5584 23.2109 15.0001C23.3468 14.5748 23.4787 14.3878 23.8357 14.1147C24.4082 13.9473 24.8387 14.0307 25.4134 14.1668Z" fill="#1F1F1F"/>
<path d="M19.3142 23.6667C19.6531 24.1667 19.6531 24.1667 19.6213 24.5938C19.4836 25.0001 19.4836 25.0001 18.9754 25.3334C17.8232 25.4234 17.8232 25.4234 17.1964 25.1459C16.8394 24.7069 16.893 24.379 16.9423 23.8334C17.8642 23.2439 18.3239 23.3095 19.3142 23.6667Z" fill="#1F1F1F"/>
<path d="M20.1612 20.6667C20.5001 21.0001 20.5001 21.0001 20.5742 21.4792C20.5001 22.0001 20.5001 22.0001 20.1506 22.4063C19.4983 22.7477 19.1685 22.7046 18.467 22.5001C18.1282 22.2084 18.1282 22.2084 17.9587 21.8334C17.9587 21.4063 17.9587 21.4063 18.1282 21.0001C18.803 20.4143 19.3122 20.4619 20.1612 20.6667Z" fill="#1F1F1F"/>
<path d="M36.5317 11.1562C37.031 11.376 37.207 11.5113 37.4423 12C37.431 12.6355 37.4079 13.0149 36.9764 13.5C36.4822 13.7161 36.2533 13.6784 35.7481 13.5C35.441 13.3021 35.441 13.3021 35.2398 13C35.1551 12.5208 35.1551 12.5208 35.2398 12C35.8667 11.1718 35.8667 11.1718 36.5317 11.1562Z" fill="#1F1F1F"/>
<path d="M29.649 10.6667C30.0531 11.0129 30.1397 11.2343 30.2314 11.7501C30.1307 12.3165 29.9536 12.5021 29.4796 12.8334C28.9714 12.9272 28.9714 12.9272 28.4631 12.8334C28.0501 12.4792 28.0501 12.4792 27.7854 12.0001C27.796 11.4688 27.796 11.4688 27.9548 11.0001C28.5824 10.5885 28.9072 10.5886 29.649 10.6667Z" fill="#1F1F1F"/>
<path d="M16.921 25.7708C17.5064 25.7833 17.7396 25.8026 18.2446 26.1145C18.467 26.4999 18.467 26.4999 18.4247 26.9583C18.3827 27.082 18.3408 27.2058 18.2976 27.3333C17.5872 27.6042 17.1711 27.7512 16.4551 27.4478C15.9257 27.1666 15.9257 27.1666 15.7562 26.9999C15.7245 26.5937 15.7245 26.5937 15.7562 26.1666C16.1782 25.7515 16.3376 25.7793 16.921 25.7708Z" fill="#1F1F1F"/>
<path d="M20.8389 17.5001C20.9507 17.6101 21.0625 17.7201 21.1777 17.8334C21.1672 18.4063 21.1672 18.4063 21.0083 19.0001C20.6377 19.3438 20.6377 19.3438 20.1612 19.5001C19.6212 19.3959 19.6212 19.3959 19.1447 19.1668C18.8058 18.6668 18.8058 18.6668 18.8164 18.2501C18.9753 17.8334 18.9753 17.8334 19.3459 17.5209C19.9293 17.2914 20.2406 17.3301 20.8389 17.5001Z" fill="#1F1F1F"/>
<path d="M41.8685 14.8542C42.1861 15.0001 42.1861 15.0001 42.525 15.5001C42.5012 16.2354 42.4805 16.6534 42.0591 17.2605C41.6779 17.5001 41.6779 17.5001 41.2119 17.4584C41.0862 17.4172 40.9604 17.3759 40.8307 17.3334C40.5794 16.7565 40.4735 16.4257 40.5978 15.8022C40.8915 15.2111 41.1558 14.813 41.8685 14.8542Z" fill="#1F1F1F"/>
<path d="M39.4755 11.5209C39.9341 11.7183 40.0938 11.8951 40.3226 12.3334C40.3097 12.9437 40.2172 13.2488 39.8461 13.7397C39.4755 14.0001 39.4755 14.0001 39.1261 14.0105C38.6376 13.747 38.4922 13.5096 38.2896 13.0001C38.3954 12.3855 38.3954 12.3855 38.6284 11.8334C39.1367 11.5001 39.1367 11.5001 39.4755 11.5209Z" fill="#1F1F1F"/>
<path d="M15.3009 27.6145C15.9777 27.6306 16.4175 27.7149 16.9422 28.1666C17.101 28.5103 17.101 28.5103 17.1116 28.8333C16.706 29.2323 16.5969 29.2159 16.0421 29.2187C15.3654 29.2026 14.9256 29.1182 14.4009 28.6666C14.242 28.3228 14.242 28.3228 14.2314 27.9999C14.6371 27.6009 14.7461 27.6173 15.3009 27.6145Z" fill="#1F1F1F"/>
<path d="M25.5829 10.5001C25.9006 10.7917 25.9006 10.7917 26.0912 11.1667C26.07 11.6042 26.07 11.6042 25.9217 12.0001C25.3338 12.3857 25.0885 12.4184 24.3969 12.3334C24.0687 12.0626 24.0687 12.0626 23.8887 11.6667C23.8993 11.1459 23.8993 11.1459 24.0581 10.6667C24.5668 10.2557 24.9786 10.2867 25.5829 10.5001Z" fill="#1F1F1F"/>
<path d="M21.3472 14C21.7124 14.5387 21.7655 14.7086 21.6861 15.3333C21.4955 15.6354 21.4955 15.6354 21.1778 15.8333C20.6443 15.8989 20.3105 15.9214 19.8436 15.6458C19.5572 15.1762 19.5623 14.8688 19.653 14.3333C20.2237 13.836 20.6318 13.7337 21.3472 14Z" fill="#1F1F1F"/>
<path d="M33.1221 7.35409C33.5848 7.51339 33.7855 7.59686 34.0539 7.99992C34.1174 8.51034 34.1174 8.51034 34.0539 8.99992C33.5456 9.33325 33.5456 9.33325 33.0268 9.302C32.5291 9.16659 32.5291 9.16659 32.1902 8.66659C32.129 8.18465 32.1251 7.93441 32.3914 7.52075C32.6985 7.33325 32.6985 7.33325 33.1221 7.35409Z" fill="#1F1F1F"/>
<path d="M15.7562 23.0001C15.9256 23.1668 15.9256 23.1668 15.968 23.573C15.954 23.7139 15.94 23.8549 15.9256 24.0001C15.2996 24.4106 14.9713 24.3984 14.2314 24.3334C13.8926 24.1355 13.8926 24.1355 13.7231 23.8334C13.7231 23.4063 13.7231 23.4063 13.8926 23.0001C14.5824 22.5542 15.0264 22.6901 15.7562 23.0001Z" fill="#1F1F1F"/>
<path d="M12.8762 28.8335C13.7671 28.7809 14.3128 28.8779 15.0787 29.3335C15.1905 29.4435 15.3023 29.5535 15.4175 29.6668C15.354 30.021 15.354 30.021 15.2481 30.3335C14.3573 30.386 13.8115 30.289 13.0456 29.8335C12.9338 29.7235 12.822 29.6135 12.7068 29.5001C12.7703 29.146 12.7703 29.146 12.8762 28.8335Z" fill="#1F1F1F"/>
<path d="M42.0485 11.6876C42.3556 11.8335 42.3556 11.8335 42.525 12.1668C42.6114 13.0584 42.6114 13.0584 42.525 13.5001C42.1015 13.8335 42.1015 13.8335 41.6779 14.0001C41.2066 13.6234 41.017 13.4325 40.9155 12.8335C41.0002 12.3335 41.0002 12.3335 41.2967 11.9272C41.6779 11.6668 41.6779 11.6668 42.0485 11.6876Z" fill="#1F1F1F"/>
<path d="M14.4539 24.9584C14.7398 25.1668 14.7398 25.1668 14.8881 25.4897C14.9093 25.8334 14.9093 25.8334 14.5704 26.3334C13.8415 26.4281 13.5008 26.4114 12.8868 26.0001C12.7715 25.8901 12.6562 25.7801 12.5374 25.6668C12.6009 25.3438 12.6009 25.3438 12.7068 25.0001C13.2811 24.7176 13.8518 24.7663 14.4539 24.9584Z" fill="#1F1F1F"/>
<path d="M16.434 20.3334C16.5458 20.4434 16.6577 20.5534 16.7729 20.6668C16.717 21.2163 16.6674 21.4372 16.2646 21.8334C15.6716 21.8751 15.6716 21.8751 15.0786 21.8334C14.7398 21.5001 14.7398 21.5001 14.6763 21.0938C14.7398 20.6668 14.7398 20.6668 15.0151 20.3543C15.5562 20.1021 15.866 20.1755 16.434 20.3334Z" fill="#1F1F1F"/>
<path d="M43.5416 14.5C43.7652 14.61 43.9888 14.72 44.2193 14.8333C44.2657 15.7324 44.2803 16.2532 43.711 17C43.4314 16.945 43.1519 16.89 42.8639 16.8333C42.8175 15.936 42.8003 15.4092 43.3721 14.6667C43.4281 14.6117 43.484 14.5567 43.5416 14.5Z" fill="#1F1F1F"/>
<path d="M36.2564 7.83325C36.8953 8.00189 37.0669 8.11262 37.4423 8.66659C37.3874 9.22032 37.3393 9.43455 36.934 9.83325C36.4057 9.8066 36.1584 9.73223 35.7693 9.37492C35.5787 8.99992 35.5787 8.99992 35.5998 8.56242C35.7481 8.16659 35.7481 8.16659 36.2564 7.83325Z" fill="#1F1F1F"/>
<path d="M29.2995 6.927C29.8183 6.99992 29.8183 6.99992 30.1572 7.3645C30.3266 7.83325 30.3266 7.83325 30.189 8.302C30.1226 8.42231 30.0562 8.54263 29.9878 8.66659C29.068 8.7269 29.068 8.7269 28.6536 8.46867C28.398 8.06366 28.4019 7.80156 28.463 7.33325C28.8018 6.99992 28.8018 6.99992 29.2995 6.927Z" fill="#1F1F1F"/>
<path d="M16.2646 17.1667C17.0364 17.426 17.0364 17.426 17.2811 17.6667C17.3447 18.0626 17.3447 18.0626 17.2811 18.5001C16.9105 18.823 16.9105 18.823 16.434 19.0001C15.9681 18.9167 15.9681 18.9167 15.5869 18.6667C15.4175 18.2605 15.4175 18.2605 15.4175 17.8334C15.6739 17.4971 15.8833 17.3543 16.2646 17.1667Z" fill="#1F1F1F"/>
<path d="M39.8462 8.52076C40.2286 8.90994 40.3093 9.12686 40.3227 9.66659C40.0791 10.052 40.0791 10.052 39.8144 10.3333C39.412 10.2812 39.412 10.2812 38.9673 10.1666C38.5324 9.52487 38.6568 9.23564 38.7979 8.49992C39.248 8.32595 39.4073 8.29869 39.8462 8.52076Z" fill="#1F1F1F"/>
<path d="M11.5208 26.3333C11.7645 26.3478 12.008 26.3659 12.2514 26.3853C12.387 26.395 12.5226 26.4047 12.6624 26.4146C13.1118 26.5147 13.2805 26.6391 13.5538 26.9999C13.5009 27.3645 13.5009 27.3645 13.3844 27.6666C12.1496 27.7476 12.1496 27.7476 11.5949 27.3749C11.3513 26.9999 11.3513 26.9999 11.4208 26.6431C11.4538 26.5409 11.4868 26.4386 11.5208 26.3333Z" fill="#1F1F1F"/>
<path d="M20.6695 10.3333C21.093 10.3645 21.093 10.3645 21.5166 10.4999C21.8554 10.9999 21.8554 10.9999 21.7919 11.4478C21.757 11.575 21.722 11.7022 21.686 11.8333C21.2946 11.8883 20.9033 11.9433 20.5001 11.9999C20.1612 11.4999 20.1612 11.4999 20.2036 11.0728C20.3306 10.6666 20.3306 10.6666 20.6695 10.3333Z" fill="#1F1F1F"/>
<path d="M43.3721 11.6667C43.6516 11.7217 43.9312 11.7767 44.2192 11.8334C44.4139 12.4256 44.4033 12.6334 44.1451 13.2188C44.014 13.4405 44.014 13.4405 43.8804 13.6667C43.6567 13.6117 43.4331 13.5567 43.2027 13.5001C42.9941 12.4334 42.9941 12.4334 43.1921 11.9272C43.2515 11.8412 43.3109 11.7553 43.3721 11.6667Z" fill="#1F1F1F"/>
<path d="M17.0588 14.0522C17.2527 14.1089 17.2527 14.1089 17.4506 14.1667C17.5065 14.4967 17.5624 14.8267 17.62 15.1667C17.2282 15.4272 17.2282 15.4272 16.7729 15.6667C16.6052 15.6117 16.4374 15.5567 16.2646 15.5001C16.0396 14.5943 16.0396 14.5943 16.2858 14.1772C16.6035 14.0001 16.6035 14.0001 17.0588 14.0522Z" fill="#1F1F1F"/>
<path d="M10.1653 27.1667C11.6175 27.4525 11.6175 27.4525 12.1983 28.1667C12.1424 28.2767 12.0865 28.3867 12.0289 28.5001C11.1319 28.5841 10.705 28.365 9.99585 27.8334C10.0518 27.6134 10.1077 27.3934 10.1653 27.1667Z" fill="#1F1F1F"/>
<path d="M41.5086 8.83325C42.3059 8.9509 42.3059 8.9509 42.5251 9.16659C42.4765 9.55649 42.4202 9.94557 42.3557 10.3333C42.0762 10.3883 41.7966 10.4433 41.5086 10.4999C41.24 10.0803 41.1634 9.88681 41.2227 9.38534C41.3392 8.99992 41.3392 8.99992 41.5086 8.83325Z" fill="#1F1F1F"/>
<path d="M25.3182 6.802C25.7524 6.83325 25.7524 6.83325 26.0912 7.16659C26.0277 7.68742 26.0277 7.68742 25.9218 8.16659C25.53 8.28117 25.53 8.28117 25.0747 8.33325C24.757 8.14575 24.757 8.14575 24.5664 7.83325C24.6614 6.8517 24.6614 6.8517 25.3182 6.802Z" fill="#1F1F1F"/>
<path d="M11.0124 22.3334C11.5341 22.2907 11.8954 22.2677 12.3678 22.5001C12.375 22.7778 12.3747 23.0557 12.3678 23.3334C12.1984 23.5001 12.1984 23.5001 11.7113 23.5522C11.1819 23.5001 11.1819 23.5001 10.8642 23.1668C10.8013 23.0568 10.7384 22.9468 10.6736 22.8334C10.7854 22.6684 10.8972 22.5034 11.0124 22.3334Z" fill="#1F1F1F"/>
<path d="M12.6326 20.1355C13.0456 20.3334 13.0456 20.3334 13.215 20.6667C13.1591 20.8317 13.1032 20.9967 13.0456 21.1667C12.5691 21.2813 12.5691 21.2813 12.029 21.3334C11.7114 21.0938 11.7114 21.0938 11.5208 20.8334C11.9403 19.9196 11.9403 19.9196 12.6326 20.1355Z" fill="#1F1F1F"/>
<path d="M9.99584 24C10.5676 24.0417 10.5676 24.0417 11.1818 24.1667C11.4253 24.5104 11.4253 24.5104 11.5206 24.8333C11.1818 25.1667 11.1818 25.1667 10.7688 25.2083C10.3347 25.1667 10.3347 25.1667 9.82642 24.8333C9.88233 24.5583 9.93823 24.2833 9.99584 24Z" fill="#1F1F1F"/>
<path d="M36.2563 4.83325C36.5402 4.88093 36.8229 4.93622 37.1034 4.99992C37.2199 5.38534 37.2199 5.38534 37.2729 5.83325C37.0293 6.13534 37.0293 6.13534 36.7646 6.33325C36.2563 6.16659 36.2563 6.16659 35.9175 5.66659C36.0051 5.08038 36.0051 5.08038 36.2563 4.83325Z" fill="#1F1F1F"/>
<path d="M8.64062 25.1667C9.95365 25.2917 9.95365 25.2917 10.3349 25.6667C10.3349 25.8317 10.3349 25.9967 10.3349 26.1667C9.77098 26.2046 9.41692 26.2204 8.91594 25.948C8.64062 25.6667 8.64062 25.6667 8.64062 25.1667Z" fill="#1F1F1F"/>
<path d="M32.8679 4.16675C33.2809 4.28133 33.2809 4.28133 33.7151 4.50008C33.8527 4.93758 33.8527 4.93758 33.8845 5.33341C33.4821 5.43758 33.4821 5.43758 33.0374 5.50008C32.6985 5.16675 32.6985 5.16675 32.6667 4.73966C32.6985 4.33341 32.6985 4.33341 32.8679 4.16675Z" fill="#1F1F1F"/>
<path d="M43.3722 9C43.7217 9.07292 43.7217 9.07292 44.0499 9.16667C44.2076 9.60097 44.2446 9.77366 44.0605 10.2083C44.0011 10.3046 43.9417 10.4008 43.8805 10.5C43.6569 10.39 43.4332 10.28 43.2028 10.1667C43.1956 9.83341 43.1959 9.49993 43.2028 9.16667C43.2587 9.11167 43.3146 9.05667 43.3722 9Z" fill="#1F1F1F"/>
<path d="M39.1367 5.5C39.7623 5.61538 39.7623 5.61538 39.9838 5.83333C39.9907 6.1666 39.991 6.50008 39.9838 6.83333C39.1579 6.6875 39.1579 6.6875 38.9673 6.5C38.9461 6.08333 38.9461 6.08333 38.9673 5.66667C39.0232 5.61167 39.0791 5.55667 39.1367 5.5Z" fill="#1F1F1F"/>
<path d="M13.2468 17.3855C13.3988 17.4422 13.3988 17.4422 13.5539 17.5C13.5611 17.7777 13.5608 18.0557 13.5539 18.3334C13.3845 18.5 13.3845 18.5 12.9503 18.5105C12.7459 18.5053 12.7459 18.5053 12.5373 18.5C12.4209 18.198 12.4209 18.198 12.3679 17.8334C12.6394 17.4257 12.7462 17.3151 13.2468 17.3855Z" fill="#1F1F1F"/>
<path d="M45.2358 8.33325C45.3476 8.38825 45.4594 8.44325 45.5746 8.49992C45.5746 8.77492 45.5746 9.04992 45.5746 9.33325C45.4628 9.33325 45.351 9.33325 45.2358 9.33325C45.1799 9.60825 45.124 9.88325 45.0664 10.1666C44.8986 10.1116 44.7309 10.0566 44.5581 9.99992C44.5581 9.66992 44.5581 9.33992 44.5581 8.99992C44.7258 8.94492 44.8936 8.88992 45.0664 8.83325C45.1223 8.66825 45.1782 8.50325 45.2358 8.33325Z" fill="#1F1F1F"/>
<path d="M17.1118 10.6667C17.2795 10.7217 17.4472 10.7767 17.6201 10.8334C17.6201 11.1084 17.6201 11.3834 17.6201 11.6667C17.3024 11.7709 17.3024 11.7709 16.9424 11.8334C16.8305 11.7234 16.7187 11.6134 16.6035 11.5001C16.6459 11.1563 16.6459 11.1563 16.7729 10.8334C16.8848 10.7784 16.9966 10.7234 17.1118 10.6667Z" fill="#1F1F1F"/>
<path d="M29.1406 3.66675C29.4245 3.71442 29.7071 3.76972 29.9877 3.83341C29.9877 4.10841 29.9877 4.38341 29.9877 4.66675C29.7082 4.66675 29.4286 4.66675 29.1406 4.66675C29.0759 4.39072 29.0197 4.11265 28.9712 3.83341C29.0271 3.77841 29.083 3.72341 29.1406 3.66675Z" fill="#1F1F1F"/>
<path d="M41.5085 6.16675C41.8368 6.30216 41.8368 6.30216 42.1862 6.50008C42.2421 6.66508 42.298 6.83008 42.3556 7.00008C42.2997 7.11008 42.2438 7.22008 42.1862 7.33341C41.9626 7.33341 41.7389 7.33341 41.5085 7.33341C41.4439 7.00151 41.3877 6.66795 41.3391 6.33341C41.395 6.27841 41.4509 6.22341 41.5085 6.16675Z" fill="#1F1F1F"/>
<path d="M20.8391 7C21.123 7.04767 21.4056 7.10297 21.6862 7.16667C21.6303 7.44167 21.5744 7.71667 21.5168 8C21.2932 7.945 21.0695 7.89 20.8391 7.83333C20.7438 7.51042 20.7438 7.51042 20.6697 7.16667C20.7256 7.11167 20.7815 7.05667 20.8391 7Z" fill="#1F1F1F"/>
<path d="M13.0456 14.5C13.3295 14.5477 13.6122 14.603 13.8928 14.6667C13.8368 14.8867 13.7809 15.1067 13.7233 15.3333C13.4997 15.3333 13.2761 15.3333 13.0456 15.3333C12.9503 15.0104 12.9503 15.0104 12.8762 14.6667C12.9321 14.6117 12.988 14.5567 13.0456 14.5Z" fill="#1F1F1F"/>
<path d="M9.31829 22.1666C9.26238 22.3866 9.20647 22.6066 9.14887 22.8333C8.86932 22.7783 8.58978 22.7233 8.30176 22.6666C8.30176 22.5016 8.30176 22.3366 8.30176 22.1666C8.72378 21.959 8.87963 22.0372 9.31829 22.1666Z" fill="#1F1F1F"/>
<path d="M7.97344 23.4895C8.21979 23.4947 8.21979 23.4947 8.47111 23.4999C8.47111 23.6649 8.47111 23.8299 8.47111 23.9999C8.19157 24.0549 7.91202 24.1099 7.624 24.1666C7.51218 24.0016 7.40036 23.8366 7.28516 23.6666C7.45458 23.4999 7.45458 23.4999 7.97344 23.4895Z" fill="#1F1F1F"/>
<path d="M6.43799 24.1667C6.94117 24.2492 6.94117 24.2492 7.45452 24.3334C7.45452 24.4984 7.45452 24.6634 7.45452 24.8334C6.95134 24.7509 6.95134 24.7509 6.43799 24.6667C6.43799 24.5017 6.43799 24.3367 6.43799 24.1667Z" fill="#1F1F1F"/>
<path d="M43.3723 6.66675C43.4841 6.66675 43.5959 6.66675 43.7111 6.66675C43.767 6.94175 43.823 7.21675 43.8806 7.50008C43.6569 7.50008 43.4333 7.50008 43.2029 7.50008C43.147 7.33508 43.0911 7.17008 43.0334 7.00008C43.1453 6.89008 43.2571 6.78008 43.3723 6.66675Z" fill="#1F1F1F"/>
<path d="M9.31834 20.1667C9.48607 20.2217 9.65379 20.2767 9.82661 20.3334C9.7707 20.5534 9.71479 20.7734 9.65718 21.0001C9.43354 20.9451 9.20991 20.8901 8.97949 20.8334C8.97949 20.6684 8.97949 20.5034 8.97949 20.3334C9.09131 20.2784 9.20313 20.2234 9.31834 20.1667Z" fill="#1F1F1F"/>
<path d="M38.459 29.3333C38.6826 29.4983 38.9062 29.6633 39.1366 29.8333C38.3319 30.1666 38.3319 30.1666 37.9507 30.1666C38.2684 29.5208 38.2684 29.5208 38.459 29.3333Z" fill="#1F1F1F"/>
<path d="M44.3887 7C44.5005 7 44.6123 7 44.7275 7C44.7834 7.165 44.8393 7.33 44.8969 7.5C44.7292 7.555 44.5615 7.61 44.3887 7.66667C44.3887 7.44667 44.3887 7.22667 44.3887 7Z" fill="#1F1F1F"/>
</svg>
