<svg width="34" height="31" viewBox="0 0 34 31" fill="none" xmlns="http://www.w3.org/2000/svg">
<path d="M15.1534 1.43986C15.8365 -0.202727 18.1635 -0.202728 18.8466 1.43986L21.8209 8.59093C22.109 9.2834 22.7602 9.75654 23.5078 9.81647L31.2279 10.4354C33.0012 10.5776 33.7203 12.7906 32.3692 13.9479L26.4873 18.9864C25.9177 19.4743 25.6689 20.2399 25.843 20.9694L27.64 28.503C28.0528 30.2334 26.1703 31.6012 24.6521 30.6738L18.0425 26.6368C17.4025 26.2458 16.5975 26.2458 15.9575 26.6368L9.34794 30.6738C7.82974 31.6012 5.94724 30.2334 6.36001 28.503L8.15705 20.9694C8.33106 20.2399 8.08232 19.4743 7.51274 18.9864L1.63078 13.9479C0.279708 12.7906 0.99876 10.5776 2.77207 10.4354L10.4922 9.81647C11.2398 9.75654 11.891 9.2834 12.1791 8.59093L15.1534 1.43986Z" fill="white"/>
</svg>
