<svg width="12" height="13" viewBox="0 0 12 13" fill="none" xmlns="http://www.w3.org/2000/svg">
<path d="M5.08194 1.12593C5.42946 0.321195 6.57054 0.321193 6.91806 1.12592L7.84103 3.26324C7.9758 3.57534 8.2599 3.79759 8.59526 3.85328L10.8599 4.22935C11.6384 4.35864 11.9674 5.29656 11.4402 5.88384L9.64338 7.88551C9.44409 8.10752 9.35434 8.4069 9.39861 8.70193L9.79958 11.3737C9.92508 12.21 9.02047 12.8148 8.29563 12.3793L6.51502 11.3094C6.19808 11.119 5.80192 11.119 5.48498 11.3094L3.70437 12.3793C2.97953 12.8148 2.07492 12.21 2.20042 11.3737L2.60139 8.70193C2.64566 8.4069 2.55591 8.10752 2.35662 7.88551L0.559808 5.88384C0.0326275 5.29656 0.361617 4.35864 1.14015 4.22935L3.40474 3.85328C3.7401 3.79759 4.02419 3.57534 4.15897 3.26324L5.08194 1.12593Z" fill="#3D3BFF"/>
</svg>
